<?xml version="1.0" standalone="no"?>
<!DOCTYPE svg PUBLIC "-//W3C//DTD SVG 20010904//EN"
 "http://www.w3.org/TR/2001/REC-SVG-20010904/DTD/svg10.dtd">
<svg version="1.0" xmlns="http://www.w3.org/2000/svg"
 width="1024.000000pt" height="1024.000000pt" viewBox="0 0 1024.000000 1024.000000"
 preserveAspectRatio="xMidYMid meet">
<defs>
  <linearGradient id="redGrad" x1="0%" y1="0%" x2="0%" y2="100%">
   <stop offset="0%" style="stop-color:#ff4d4d;stop-opacity:1" />
   <stop offset="100%" style="stop-color:#990000;stop-opacity:1" />
  </linearGradient>
</defs>
<g transform="translate(0.000000,1024.000000) scale(0.100000,-0.100000)"
fill="url(#redGrad)" stroke="none">
<path d="M4875 10229 c-44 -4 -134 -13 -200 -19 -272 -25 -562 -75 -815 -141
-151 -39 -465 -138 -525 -165 -16 -7 -64 -26 -105 -43 -174 -68 -485 -216
-579 -276 -23 -14 -43 -25 -45 -25 -9 0 -192 -113 -311 -193 -151 -100 -287
-203 -435 -326 -169 -140 -189 -159 -370 -340 -795 -799 -1298 -1830 -1444
-2962 -39 -301 -55 -664 -37 -844 6 -60 16 -168 21 -240 29 -350 129 -819 249
-1167 213 -614 513 -1146 932 -1648 127 -153 443 -472 599 -605 216 -183 500
-386 720 -514 41 -24 92 -55 113 -68 40 -25 356 -183 442 -220 411 -180 888
-313 1365 -382 153 -23 530 -51 673 -51 408 0 986 86 1415 211 996 290 1896
893 2558 1714 637 790 1021 1739 1114 2750 6 66 15 161 20 212 20 186 7 491
-35 842 -59 483 -211 1021 -420 1486 -191 424 -459 842 -792 1233 -487 573
-1178 1079 -1873 1371 -69 29 -139 59 -155 66 -55 25 -428 145 -540 175 -505
133 -1171 207 -1540 169z m745 -374 c579 -66 1075 -210 1585 -460 925 -454
1674 -1188 2158 -2115 199 -382 366 -882 446 -1335 54 -306 66 -447 66 -805 0
-470 -40 -800 -150 -1225 -195 -757 -577 -1439 -1153 -2063 -390 -422 -993
-850 -1517 -1077 -390 -169 -667 -256 -1040 -328 -295 -57 -485 -76 -825 -84
-586 -13 -1151 84 -1730 299 -628 233 -1202 602 -1686 1083 -600 597 -1017
1303 -1244 2104 -45 162 -70 276 -104 471 -51 300 -66 482 -66 795 0 1054 319
2011 952 2855 149 199 246 309 442 506 372 372 735 639 1196 881 112 59 368
175 425 193 22 7 45 16 50 20 15 11 276 100 375 127 329 90 629 144 970 173
153 13 690 4 850 -15z"/>
<path d="M2820 5121 l0 -2691 628 0 628 0 -4 638 -3 637 112 130 c61 72 126
146 143 165 17 19 87 100 156 180 69 80 130 151 137 158 6 7 40 46 74 87 34
41 65 75 70 75 7 0 143 -192 467 -660 63 -91 145 -208 182 -260 37 -52 176
-250 310 -440 134 -190 261 -369 283 -398 97 -128 261 -239 421 -285 67 -20
102 -21 659 -24 323 -2 587 -1 587 2 0 7 -30 50 -279 405 -130 185 -258 370
-428 615 -49 72 -166 240 -260 375 -185 267 -192 277 -468 680 -103 151 -268
390 -365 530 -273 394 -280 405 -280 423 0 9 4 19 10 22 5 3 117 131 247 283
131 152 339 394 463 537 124 143 295 341 380 440 85 99 243 281 350 405 107
124 218 252 245 284 28 33 105 123 173 200 160 183 156 176 89 176 -107 0
-406 -72 -577 -140 -75 -29 -362 -172 -375 -186 -26 -29 -166 -124 -175 -119
-15 9 49 64 183 156 116 79 271 161 394 209 48 19 62 28 58 41 -8 23 8 27 90
24 39 -2 88 1 110 5 61 12 -728 12 -825 0 -108 -14 -133 -21 -257 -82 -126
-62 -185 -114 -366 -326 -378 -442 -641 -751 -817 -958 -531 -624 -897 -1047
-911 -1052 -5 -2 -10 403 -11 900 -4 978 0 917 -58 1071 -51 137 -193 295
-325 364 -167 86 -169 86 -537 91 l-328 3 0 -2690z m220 2631 c0 -5 10 -14 23
-21 22 -11 22 -11 -3 -5 -14 3 -32 12 -40 20 -12 12 -12 14 3 14 9 0 17 -4 17
-8z m133 -83 c21 -15 33 -30 27 -34 -5 -3 -10 -2 -10 3 0 5 -13 15 -30 22 -16
7 -30 16 -30 21 0 4 -9 11 -20 14 -11 3 -20 11 -20 16 0 12 30 -3 83 -42z
m197 -173 c25 -33 38 -59 34 -69 -7 -19 -7 -19 -82 71 -29 35 -52 67 -52 73 0
22 62 -25 100 -75z"/>
</g>
</svg>
